# xmcd
#
# Track frame offsets: 
#        150
#        12460
#        25395
#        37640
#        49100
#        64342
#        76817
#        89407
#        101775
#        110375
#        123772
#        135902
#        148760
#        163100
#        175212
#
# Disc length: 2480 seconds
#
# Revision: 2
# Processed by: cddbd v1.5.2PL0 Copyright (c) Steve Scherf et al.
# Submitted via: ExactAudioCopyFreeDBPlugin 1.0
#
DISCID=c009ae0f
DTITLE=Various Artist - Country Gold
DYEAR=1995
DGENRE=Country
TTITLE0=Jonny Cash - I Walk The Line
TTITLE1=Kenny Rogers - Ruby Dont Take Your Love To Town
TTITLE2=Lynn Anderson - Stand By your Man
TTITLE3=Jerry Lee Lewis - Your Cheatin' Heart
TTITLE4=Billie Jo Spears - Blanket On The Ground
TTITLE5=Bobby Bare - 500 Miles Away From Home
TTITLE6=Patsy Cline - Just A Closer Walk With Thee
TTITLE7=Jeannie C. Riley - Good Enough to Be Your Wife
TTITLE8=Webb Pierce - It's Been So Long
TTITLE9=Patti Page - Tennessee Waltz
TTITLE10=Roy Orbison - Trin' To Get To You
TTITLE11=Carl Perkins - What'cha Doin' When You're Cryin'
TTITLE12=David Warren Smith - Black Jack David
TTITLE13=Merle Haggard - Okie From Muskogee
TTITLE14=Roger Miller - King Of The Road
EXTD=
EXTT0=Johnny Cass\n
EXTT1=Kenny Rogers\n
EXTT2=Lynn Anderson\n
EXTT3=Jerry Lee Lewis\n
EXTT4=Billie Joe Spears\n
EXTT5=Bobby Bare\n
EXTT6=Patsy Cline\n
EXTT7=Jeannie C. Riley\n
EXTT8=Webb Pierce\n
EXTT9=Patti Page\n
EXTT10=Roy Orbison\n
EXTT11=Carl Perkins\n
EXTT12=Warren Smith\n
EXTT13=Merle Haggard\n
EXTT14=Roger Miller\n
PLAYORDER=
